#!OML:ASF H:\MichaelJackson\Top Level 1\Subject 1\Session 1\male.ASF
:FULLY-SPECIFIED
:DEGREES
901
root 1.89328 16.1319 12.7448 18.3136 -9.9926 -1.23524
lowerback 1.40197 0.10233 3.94457
upperback -1.62932 0.155481 -3.57619
thorax -2.4505 -0.0306637 -5.93847
lowerneck -6.91965 2.94567 5.96495
upperneck -3.50896 3.51385 1.63572
head 0.129878 1.70027 -0.400162
rclavicle -2.00773e-014 -3.73715e-014
rhumerus 8.75652 -27.7717 3.59144
rradius 26.2307
rwrist -12.4287
rhand -36.6127 -50.0865
rfingers 7.12502
rthumb -9.70096 -79.8431
lclavicle -2.00773e-014 -3.73715e-014
lhumerus -53.6596 -38.3906 116.493
lradius 50.4933
lwrist 19.2242
lhand 38.9581 34.1767
lfingers 7.12502
lthumb 61.526 46.2485
rfemur -46.4419 -8.15492 1.14523
rtibia 54.2557
rfoot -1.92168 9.59387
rtoes -32.9415
lfemur 0.0987672 11.5882 9.94638
ltibia -1.11319e-014
lfoot -14.758 -22.5142
ltoes -33.0972
902
root 1.89215 16.1386 12.7429 18.2032 -9.85395 -1.25147
lowerback 1.36808 0.114488 3.98548
upperback -1.62319 0.172328 -3.56525
thorax -2.42283 -0.021871 -5.95065
lowerneck -6.96762 2.94924 5.98373
upperneck -3.39482 3.50993 1.62365
head 0.173781 1.70149 -0.405781
rclavicle -1.78906e-015 9.54166e-015
rhumerus 8.77532 -27.7991 3.51853
rradius 26.1847
rwrist -12.3996
rhand -36.6685 -50.1488
rfingers 7.12502
rthumb -9.75481 -79.9029
lclavicle -1.78906e-015 9.54166e-015
lhumerus -53.5573 -38.4158 116.48
lradius 50.3946
lwrist 19.0242
lhand 39.2072 34.1223
lfingers 7.12502
lthumb 61.7348 45.9425
rfemur -46.1429 -8.15084 1.14767
rtibia 54.0467
rfoot -1.97925 9.58645
rtoes -33.1802
lfemur 0.109083 11.417 9.94448
ltibia 1.59028e-015
lfoot -14.6049 -22.3052
ltoes -33.1527
903
root 1.89168 16.1457 12.7411 18.0899 -9.71893 -1.28312
lowerback 1.3421 0.128818 4.05217
upperback -1.62119 0.192951 -3.55124
thorax -2.40341 -0.0119402 -5.97461
lowerneck -7.00105 2.95301 5.99974
upperneck -3.28589 3.5077 1.60246
head 0.213937 1.7033 -0.413961
rclavicle -8.74653e-015 1.43125e-014
rhumerus 8.7816 -27.8008 3.46867
rradius 26.1529
rwrist -12.419
rhand -36.7301 -50.2245
rfingers 7.12502
rthumb -9.81424 -79.9758
lclavicle -8.74653e-015 1.43125e-014
lhumerus -53.4584 -38.4097 116.459
lradius 50.2898
lwrist 18.8402
lhand 39.4331 34.0752
lfingers 7.12502
lthumb 61.9236 45.6639
rfemur -45.8355 -8.12669 1.15405
rtibia 53.8276
rfoot -2.0343 9.5911
rtoes -33.4242
lfemur 0.129335 11.2497 9.95269
ltibia -7.95139e-015
lfoot -14.4548 -22.0799
ltoes -33.2017
904
root 1.89189 16.1529 12.7392 17.9778 -9.59163 -1.32491
lowerback 1.31758 0.14619 4.13632
upperback -1.6238 0.218084 -3.53559
thorax -2.38895 -0.000287212 -6.00707
lowerneck -7.01959 2.95765 6.01764
upperneck -3.18262 3.50778 1.5703
head 0.250275 1.70592 -0.426035
rclavicle 2.8625e-014 1.98785e-014
rhumerus 8.77934 -27.7844 3.43599
rradius 26.1326
rwrist -12.4718
rhand -36.7907 -50.2973
rfingers 7.12502
rthumb -9.87274 -80.0458
lclavicle 2.8625e-014 1.98785e-014
lhumerus -53.3704 -38.3767 116.436
lradius 50.1832
lwrist 18.6953
lhand 39.6121 34.0401
lfingers 7.12502
lthumb 62.0729 45.443
rfemur -45.5305 -8.09582 1.16972
rtibia 53.6051
rfoot -2.08461 9.5944
rtoes -33.6452
lfemur 0.157574 11.0908 9.96532
ltibia 1.90833e-014
lfoot -14.3012 -21.8414
ltoes -33.2503
905
root 1.89277 16.1603 12.7374 17.8663 -9.47446 -1.37068
lowerback 1.2923 0.166186 4.23005
upperback -1.63041 0.246887 -3.51913
thorax -2.37766 0.012861 -6.04429
lowerneck -7.03343 2.96283 6.02841
upperneck -3.07788 3.50944 1.53501
head 0.286316 1.70938 -0.437928
rclavicle -2.10712e-014 -2.38542e-014
rhumerus 8.77265 -27.7536 3.41709
rradius 26.1215
rwrist -12.5428
rhand -36.8472 -50.3832
rfingers 7.12502
rthumb -9.9272 -80.1291
lclavicle -2.10712e-014 -2.38542e-014
lhumerus -53.298 -38.3221 116.416
lradius 50.0821
lwrist 18.6046
lhand 39.729 34.0229
lfingers 7.12502
lthumb 62.1702 45.3033
rfemur -45.2305 -8.07347 1.19795
rtibia 53.3841
rfoot -2.13203 9.58773
rtoes -33.8311
lfemur 0.195709 10.9409 9.97693
ltibia 3.97569e-014
lfoot -14.1387 -21.5947
ltoes -33.2935
906
root 1.89414 16.1677 12.7356 17.7574 -9.36958 -1.41573
lowerback 1.26351 0.188085 4.32262
upperback -1.64113 0.27805 -3.50144
thorax -2.36825 0.0270722 -6.07962
lowerneck -7.0436 2.96979 6.03645
upperneck -2.97244 3.51398 1.49392
head 0.32216 1.71422 -0.451151
rclavicle -3.04141e-014 7.95139e-016
rhumerus 8.7725 -27.727 3.40024
rradius 26.1112
rwrist -12.6026
rhand -36.8893 -50.4531
rfingers 7.12502
rthumb -9.9678 -80.197
lclavicle -3.04141e-014 7.95139e-016
lhumerus -53.2419 -38.2564 116.406
lradius 49.9851
lwrist 18.5884
lhand 39.7555 34.0175
lfingers 7.12502
lthumb 62.1922 45.27
rfemur -44.9414 -8.06615 1.23978
rtibia 53.1674
rfoot -2.17333 9.56245
rtoes -33.9663
lfemur 0.241253 10.8022 9.98432
ltibia -2.22639e-014
lfoot -13.9642 -21.3459
ltoes -33.3365
907
root 1.89584 16.1752 12.734 17.6501 -9.27854 -1.45319
lowerback 1.2283 0.211977 4.40445
upperback -1.65344 0.311321 -3.48506
thorax -2.35653 0.042551 -6.11016
lowerneck -7.06058 2.97942 6.047
upperneck -2.85914 3.52116 1.44856
head 0.361851 1.72053 -0.465927
rclavicle -1.53064e-014 -3.89618e-014
rhumerus 8.77627 -27.7095 3.38438
rradius 26.0994
rwrist -12.6416
rhand -36.917 -50.5185
rfingers 7.12502
rthumb -9.99456 -80.2612
lclavicle -1.53064e-014 -3.89618e-014
lhumerus -53.1943 -38.1889 116.397
lradius 49.8983
lwrist 18.6168
lhand 39.7351 34.019
lfingers 7.12502
lthumb 62.1752 45.293
rfemur -44.6628 -8.07738 1.28959
rtibia 52.9547
rfoot -2.21048 9.51642
rtoes -34.049
lfemur 0.29403 10.6743 9.98146
ltibia -7.95139e-015
lfoot -13.7778 -21.1014
ltoes -33.3774
908
root 1.89767 16.1826 12.7325 17.5437 -9.19898 -1.47945
lowerback 1.185 0.236966 4.469
upperback -1.66633 0.3453 -3.46941
thorax -2.3407 0.0588006 -6.13144
lowerneck -7.08645 2.98999 6.05579
upperneck -2.73655 3.52881 1.40351
head 0.405963 1.72735 -0.480152
rclavicle -1.92821e-014 -2.22639e-014
rhumerus 8.78505 -27.7016 3.36809
rradius 26.0854
rwrist -12.6545
rhand -36.9302 -50.5678
rfingers 7.12502
rthumb -10.0073 -80.3099
lclavicle -1.92821e-014 -2.22639e-014
lhumerus -53.153 -38.1294 116.394
lradius 49.8216
lwrist 18.6811
lhand 39.6876 34.0266
lfingers 7.12502
lthumb 62.1358 45.3504
rfemur -44.3916 -8.10839 1.3424
rtibia 52.7442
rfoot -2.25131 9.45341
rtoes -34.0978
lfemur 0.351422 10.5543 9.96587
ltibia 2.06736e-014
lfoot -13.5852 -20.8629
ltoes -33.4234
909
root 1.89945 16.19 12.731 17.4365 -9.12772 -1.48969
lowerback 1.13371 0.262903 4.51111
upperback -1.67946 0.379626 -3.45672
thorax -2.32053 0.0757263 -6.14282
lowerneck -7.11732 2.99973 6.06288
upperneck -2.60909 3.53506 1.36372
head 0.452326 1.73363 -0.492426
rclavicle 2.28602e-014 6.36111e-015
rhumerus 8.79561 -27.7081 3.35101
rradius 26.0651
rwrist -12.6322
rhand -36.929 -50.5958
rfingers 7.12502
rthumb -10.0061 -80.338
lclavicle 2.28602e-014 6.36111e-015
lhumerus -53.1168 -38.0885 116.4
lradius 49.7527
lwrist 18.7693
lhand 39.6271 34.0438
lfingers 7.12502
lthumb 62.0854 45.431
rfemur -44.1234 -8.15727 1.38886
rtibia 52.5324
rfoot -2.29935 9.38236
rtoes -34.1347
lfemur 0.410189 10.4381 9.93346
ltibia -3.18055e-015
lfoot -13.3848 -20.6349
ltoes -33.4632
910
root 1.90105 16.1974 12.7295 17.3268 -9.0606 -1.48364
lowerback 1.07965 0.287885 4.53093
upperback -1.69282 0.411928 -3.44806
thorax -2.29935 0.0920186 -6.14555
lowerneck -7.1563 3.00944 6.07017
upperneck -2.47295 3.54042 1.33518
head 0.502576 1.73979 -0.501119
rclavicle -1.21259e-014 -4.77083e-015
rhumerus 8.80542 -27.7252 3.33234
rradius 26.0379
rwrist -12.5812
rhand -36.9145 -50.6073
rfingers 7.12502
rthumb -9.99215 -80.3501
lclavicle -1.21259e-014 -4.77083e-015
lhumerus -53.0848 -38.0693 116.412
lradius 49.6911
lwrist 18.8622
lhand 39.5638 34.0591
lfingers 7.12502
lthumb 62.0326 45.5123
rfemur -43.8527 -8.21795 1.42256
rtibia 52.316
rfoot -2.35699 9.31109
rtoes -34.1797
lfemur 0.467715 10.3212 9.88452
ltibia -4.77083e-015
lfoot -13.1827 -20.4163
ltoes -33.4973
911
root 1.90238 16.2048 12.7277 17.2151 -8.99029 -1.46188
lowerback 1.02386 0.312418 4.53378
upperback -1.70799 0.442996 -3.44691
thorax -2.27926 0.107836 -6.14636
lowerneck -7.19475 3.01501 6.08555
upperneck -2.33651 3.53972 1.31764
head 0.552694 1.74295 -0.507934
rclavicle -1.82882e-014 2.78299e-014
rhumerus 8.80229 -27.7509 3.31499
rradius 26.0033
rwrist -12.5022
rhand -36.887 -50.5958
rfingers 7.12502
rthumb -9.96567 -80.3399
lclavicle -1.82882e-014 2.78299e-014
lhumerus -53.0681 -38.0801 116.433
lradius 49.6411
lwrist 18.9431
lhand 39.5112 34.0667
lfingers 7.12502
lthumb 61.9887 45.5746
rfemur -43.5761 -8.28736 1.43942
rtibia 52.0918
rfoot -2.43566 9.24249
rtoes -34.2892
lfemur 0.517798 10.1981 9.82006
ltibia 0
lfoot -12.9873 -20.2054
ltoes -33.5301
912
root 1.90343 16.2122 12.7258 17.0984 -8.91031 -1.42723
lowerback 0.969999 0.334068 4.52396
upperback -1.72271 0.469877 -3.45098
thorax -2.2604 0.121694 -6.14528
lowerneck -7.23295 3.01617 6.10283
upperneck -2.20341 3.53307 1.31407
head 0.601378 1.74318 -0.510922
rclavicle -2.0276e-014 -7.95139e-016
rhumerus 8.78942 -27.7872 3.29928
rradius 25.9606
rwrist -12.4003
rhand -36.8504 -50.5637
rfingers 7.12502
rthumb -9.93033 -80.3094
lclavicle -2.0276e-014 -7.95139e-016
lhumerus -53.0625 -38.1181 116.466
lradius 49.598
lwrist 18.999
lhand 39.49 34.0567
lfingers 7.12502
lthumb 61.971 45.5866
rfemur -43.2862 -8.36064 1.43818
rtibia 51.8587
rfoot -2.5347 9.17801
rtoes -34.4654
lfemur 0.55972 10.0623 9.74342
ltibia -1.74931e-014
lfoot -12.8032 -19.9972
ltoes -33.5676
913
root 1.90443 16.2195 12.7238 16.9729 -8.82621 -1.38706
lowerback 0.922542 0.354222 4.51081
upperback -1.73569 0.494821 -3.45938
thorax -2.2436 0.134575 -6.14683
lowerneck -7.2758 3.01469 6.12019
upperneck -2.07116 3.52248 1.32515
head 0.650227 1.7416 -0.50944
rclavicle 3.77691e-015 2.38542e-015
rhumerus 8.7628 -27.8196 3.29158
rradius 25.9156
rwrist -12.2976
rhand -36.8088 -50.5175
rfingers 7.12502
rthumb -9.89016 -80.2652
lclavicle 3.77691e-015 2.38542e-015
lhumerus -53.0685 -38.1754 116.507
lradius 49.5622
lwrist 19.0219
lhand 39.5 34.0385
lfingers 7.12502
lthumb 61.9794 45.558
rfemur -42.9803 -8.4248 1.42125
rtibia 51.6167
rfoot -2.65154 9.11905
rtoes -34.7114
lfemur 0.603465 9.9178 9.66138
ltibia 3.18055e-014
lfoot -12.628 -19.7912
ltoes -33.5995
